<mxfile host="app.diagrams.net" modified="2021-05-09T13:02:17.961Z" agent="5.0 (Windows NT 10.0; Win64; x64) AppleWebKit/537.36 (KHTML, like Gecko) Chrome/90.0.4430.93 Safari/537.36" etag="N3OsxIfc22nSxJ5Y0KTh" version="14.5.6" type="github">
  <diagram id="C5RBs43oDa-KdzZeNtuy" name="Page-1">
    <mxGraphModel dx="1422" dy="762" grid="1" gridSize="10" guides="1" tooltips="1" connect="1" arrows="1" fold="1" page="1" pageScale="1" pageWidth="827" pageHeight="1169" math="0" shadow="0">
      <root>
        <mxCell id="WIyWlLk6GJQsqaUBKTNV-0" />
        <mxCell id="WIyWlLk6GJQsqaUBKTNV-1" parent="WIyWlLk6GJQsqaUBKTNV-0" />
        <mxCell id="NUodg-8Ih7Tdwm7rFsl7-0" value="CINEMA" style="shape=table;startSize=30;container=1;collapsible=1;childLayout=tableLayout;fixedRows=1;rowLines=0;fontStyle=1;align=center;resizeLast=1;" vertex="1" parent="WIyWlLk6GJQsqaUBKTNV-1">
          <mxGeometry x="150" y="300" width="190" height="160" as="geometry" />
        </mxCell>
        <mxCell id="NUodg-8Ih7Tdwm7rFsl7-1" value="" style="shape=partialRectangle;collapsible=0;dropTarget=0;pointerEvents=0;fillColor=none;points=[[0,0.5],[1,0.5]];portConstraint=eastwest;top=0;left=0;right=0;bottom=1;" vertex="1" parent="NUodg-8Ih7Tdwm7rFsl7-0">
          <mxGeometry y="30" width="190" height="30" as="geometry" />
        </mxCell>
        <mxCell id="NUodg-8Ih7Tdwm7rFsl7-2" value="PK" style="shape=partialRectangle;overflow=hidden;connectable=0;fillColor=none;top=0;left=0;bottom=0;right=0;fontStyle=1;" vertex="1" parent="NUodg-8Ih7Tdwm7rFsl7-1">
          <mxGeometry width="30" height="30" as="geometry" />
        </mxCell>
        <mxCell id="NUodg-8Ih7Tdwm7rFsl7-3" value="id" style="shape=partialRectangle;overflow=hidden;connectable=0;fillColor=none;top=0;left=0;bottom=0;right=0;align=left;spacingLeft=6;fontStyle=5;" vertex="1" parent="NUodg-8Ih7Tdwm7rFsl7-1">
          <mxGeometry x="30" width="160" height="30" as="geometry" />
        </mxCell>
        <mxCell id="NUodg-8Ih7Tdwm7rFsl7-4" value="" style="shape=partialRectangle;collapsible=0;dropTarget=0;pointerEvents=0;fillColor=none;points=[[0,0.5],[1,0.5]];portConstraint=eastwest;top=0;left=0;right=0;bottom=0;" vertex="1" parent="NUodg-8Ih7Tdwm7rFsl7-0">
          <mxGeometry y="60" width="190" height="30" as="geometry" />
        </mxCell>
        <mxCell id="NUodg-8Ih7Tdwm7rFsl7-5" value="" style="shape=partialRectangle;overflow=hidden;connectable=0;fillColor=none;top=0;left=0;bottom=0;right=0;" vertex="1" parent="NUodg-8Ih7Tdwm7rFsl7-4">
          <mxGeometry width="30" height="30" as="geometry" />
        </mxCell>
        <mxCell id="NUodg-8Ih7Tdwm7rFsl7-6" value="name" style="shape=partialRectangle;overflow=hidden;connectable=0;fillColor=none;top=0;left=0;bottom=0;right=0;align=left;spacingLeft=6;" vertex="1" parent="NUodg-8Ih7Tdwm7rFsl7-4">
          <mxGeometry x="30" width="160" height="30" as="geometry" />
        </mxCell>
        <mxCell id="NUodg-8Ih7Tdwm7rFsl7-7" value="" style="shape=partialRectangle;collapsible=0;dropTarget=0;pointerEvents=0;fillColor=none;points=[[0,0.5],[1,0.5]];portConstraint=eastwest;top=0;left=0;right=0;bottom=0;" vertex="1" parent="NUodg-8Ih7Tdwm7rFsl7-0">
          <mxGeometry y="90" width="190" height="30" as="geometry" />
        </mxCell>
        <mxCell id="NUodg-8Ih7Tdwm7rFsl7-8" value="" style="shape=partialRectangle;overflow=hidden;connectable=0;fillColor=none;top=0;left=0;bottom=0;right=0;" vertex="1" parent="NUodg-8Ih7Tdwm7rFsl7-7">
          <mxGeometry width="30" height="30" as="geometry" />
        </mxCell>
        <mxCell id="NUodg-8Ih7Tdwm7rFsl7-9" value="location" style="shape=partialRectangle;overflow=hidden;connectable=0;fillColor=none;top=0;left=0;bottom=0;right=0;align=left;spacingLeft=6;" vertex="1" parent="NUodg-8Ih7Tdwm7rFsl7-7">
          <mxGeometry x="30" width="160" height="30" as="geometry" />
        </mxCell>
        <mxCell id="NUodg-8Ih7Tdwm7rFsl7-10" value="" style="shape=partialRectangle;collapsible=0;dropTarget=0;pointerEvents=0;fillColor=none;points=[[0,0.5],[1,0.5]];portConstraint=eastwest;top=0;left=0;right=0;bottom=0;" vertex="1" parent="NUodg-8Ih7Tdwm7rFsl7-0">
          <mxGeometry y="120" width="190" height="30" as="geometry" />
        </mxCell>
        <mxCell id="NUodg-8Ih7Tdwm7rFsl7-11" value="" style="shape=partialRectangle;overflow=hidden;connectable=0;fillColor=none;top=0;left=0;bottom=0;right=0;" vertex="1" parent="NUodg-8Ih7Tdwm7rFsl7-10">
          <mxGeometry width="30" height="30" as="geometry" />
        </mxCell>
        <mxCell id="NUodg-8Ih7Tdwm7rFsl7-12" value="no_rooms" style="shape=partialRectangle;overflow=hidden;connectable=0;fillColor=none;top=0;left=0;bottom=0;right=0;align=left;spacingLeft=6;" vertex="1" parent="NUodg-8Ih7Tdwm7rFsl7-10">
          <mxGeometry x="30" width="160" height="30" as="geometry" />
        </mxCell>
        <mxCell id="NUodg-8Ih7Tdwm7rFsl7-13" value="SALA" style="shape=table;startSize=30;container=1;collapsible=1;childLayout=tableLayout;fixedRows=1;rowLines=0;fontStyle=1;align=center;resizeLast=1;" vertex="1" parent="WIyWlLk6GJQsqaUBKTNV-1">
          <mxGeometry x="380" y="300" width="300" height="160" as="geometry" />
        </mxCell>
        <mxCell id="NUodg-8Ih7Tdwm7rFsl7-14" value="" style="shape=partialRectangle;collapsible=0;dropTarget=0;pointerEvents=0;fillColor=none;points=[[0,0.5],[1,0.5]];portConstraint=eastwest;top=0;left=0;right=0;bottom=1;" vertex="1" parent="NUodg-8Ih7Tdwm7rFsl7-13">
          <mxGeometry y="30" width="300" height="30" as="geometry" />
        </mxCell>
        <mxCell id="NUodg-8Ih7Tdwm7rFsl7-15" value="PK" style="shape=partialRectangle;overflow=hidden;connectable=0;fillColor=none;top=0;left=0;bottom=0;right=0;fontStyle=1;" vertex="1" parent="NUodg-8Ih7Tdwm7rFsl7-14">
          <mxGeometry width="30" height="30" as="geometry" />
        </mxCell>
        <mxCell id="NUodg-8Ih7Tdwm7rFsl7-16" value="id" style="shape=partialRectangle;overflow=hidden;connectable=0;fillColor=none;top=0;left=0;bottom=0;right=0;align=left;spacingLeft=6;fontStyle=5;" vertex="1" parent="NUodg-8Ih7Tdwm7rFsl7-14">
          <mxGeometry x="30" width="270" height="30" as="geometry" />
        </mxCell>
        <mxCell id="NUodg-8Ih7Tdwm7rFsl7-17" value="" style="shape=partialRectangle;collapsible=0;dropTarget=0;pointerEvents=0;fillColor=none;points=[[0,0.5],[1,0.5]];portConstraint=eastwest;top=0;left=0;right=0;bottom=0;" vertex="1" parent="NUodg-8Ih7Tdwm7rFsl7-13">
          <mxGeometry y="60" width="300" height="30" as="geometry" />
        </mxCell>
        <mxCell id="NUodg-8Ih7Tdwm7rFsl7-18" value="" style="shape=partialRectangle;overflow=hidden;connectable=0;fillColor=none;top=0;left=0;bottom=0;right=0;" vertex="1" parent="NUodg-8Ih7Tdwm7rFsl7-17">
          <mxGeometry width="30" height="30" as="geometry" />
        </mxCell>
        <mxCell id="NUodg-8Ih7Tdwm7rFsl7-19" value="cinema_idÂ " style="shape=partialRectangle;overflow=hidden;connectable=0;fillColor=none;top=0;left=0;bottom=0;right=0;align=left;spacingLeft=6;" vertex="1" parent="NUodg-8Ih7Tdwm7rFsl7-17">
          <mxGeometry x="30" width="270" height="30" as="geometry" />
        </mxCell>
        <mxCell id="NUodg-8Ih7Tdwm7rFsl7-20" value="" style="shape=partialRectangle;collapsible=0;dropTarget=0;pointerEvents=0;fillColor=none;points=[[0,0.5],[1,0.5]];portConstraint=eastwest;top=0;left=0;right=0;bottom=0;" vertex="1" parent="NUodg-8Ih7Tdwm7rFsl7-13">
          <mxGeometry y="90" width="300" height="30" as="geometry" />
        </mxCell>
        <mxCell id="NUodg-8Ih7Tdwm7rFsl7-21" value="" style="shape=partialRectangle;overflow=hidden;connectable=0;fillColor=none;top=0;left=0;bottom=0;right=0;" vertex="1" parent="NUodg-8Ih7Tdwm7rFsl7-20">
          <mxGeometry width="30" height="30" as="geometry" />
        </mxCell>
        <mxCell id="NUodg-8Ih7Tdwm7rFsl7-22" value="no_seats" style="shape=partialRectangle;overflow=hidden;connectable=0;fillColor=none;top=0;left=0;bottom=0;right=0;align=left;spacingLeft=6;" vertex="1" parent="NUodg-8Ih7Tdwm7rFsl7-20">
          <mxGeometry x="30" width="270" height="30" as="geometry" />
        </mxCell>
        <mxCell id="NUodg-8Ih7Tdwm7rFsl7-23" value="" style="shape=partialRectangle;collapsible=0;dropTarget=0;pointerEvents=0;fillColor=none;points=[[0,0.5],[1,0.5]];portConstraint=eastwest;top=0;left=0;right=0;bottom=0;" vertex="1" parent="NUodg-8Ih7Tdwm7rFsl7-13">
          <mxGeometry y="120" width="300" height="30" as="geometry" />
        </mxCell>
        <mxCell id="NUodg-8Ih7Tdwm7rFsl7-24" value="" style="shape=partialRectangle;overflow=hidden;connectable=0;fillColor=none;top=0;left=0;bottom=0;right=0;" vertex="1" parent="NUodg-8Ih7Tdwm7rFsl7-23">
          <mxGeometry width="30" height="30" as="geometry" />
        </mxCell>
        <mxCell id="NUodg-8Ih7Tdwm7rFsl7-25" value="type" style="shape=partialRectangle;overflow=hidden;connectable=0;fillColor=none;top=0;left=0;bottom=0;right=0;align=left;spacingLeft=6;" vertex="1" parent="NUodg-8Ih7Tdwm7rFsl7-23">
          <mxGeometry x="30" width="270" height="30" as="geometry" />
        </mxCell>
      </root>
    </mxGraphModel>
  </diagram>
</mxfile>
